Coordinates
version=1
nRows=15
nColumns=34
inDegrees=no

Units are S.I. units (second, meters, Newtons, ...)
If the header above contains a line with 'inDegrees', this indicates whether rotational values are in degrees (yes) or radians (no).

endheader
time	pelvis_tilt	pelvis_list	pelvis_rotation	pelvis_tx	pelvis_ty	pelvis_tz	hip_flexion_r	hip_adduction_r	hip_rotation_r	knee_angle_r	ankle_angle_r	subtalar_angle_r	mtp_angle_r	hip_flexion_l	hip_adduction_l	hip_rotation_l	knee_angle_l	ankle_angle_l	subtalar_angle_l	mtp_angle_l	lumbar_extension	lumbar_bending	lumbar_rotation	arm_flex_r	arm_add_r	arm_rot_r	elbow_flex_r	pro_sup_r	arm_flex_l	arm_add_l	arm_rot_l	elbow_flex_l	pro_sup_l
1.27	-0.16241	0.131815	-0.0509143	1.09887	0.920104	-0.2097	0.671544	-0.114659	-0.0704928	0.280177	0.361255	0.311203	-0.100343	-0.0259434	0.16682	0.0773069	0.0842695	0.334378	-0.0137373	-0.0974095	-0.104981	-0.169485	-0.033381	-0.158823	-0.167505	-0.11692	0.682013	1.65112	0.0709342	-0.251515	-0.258265	0.706881	1.72039
1.28	-0.160747	0.123097	-0.0479059	1.10867	0.919034	-0.209963	0.657055	-0.105349	-0.083107	0.22684	0.359328	0.3366	-0.100359	-0.0358758	0.157078	0.0667471	0.093326	0.350574	0.00771224	-0.0974067	-0.104417	-0.150598	-0.041462	-0.162275	-0.168783	-0.124912	0.674645	1.65074	0.0725195	-0.251605	-0.247889	0.698233	1.72756
1.29	-0.159516	0.11538	-0.0448654	1.11863	0.917862	-0.210246	0.644033	-0.0971638	-0.0922035	0.18143	0.356514	0.352081	-0.100376	-0.0449281	0.148303	0.0553911	0.103426	0.36648	0.0297123	-0.0974038	-0.102816	-0.132549	-0.0494977	-0.165933	-0.170228	-0.133069	0.666885	1.65058	0.0735779	-0.251399	-0.236947	0.689163	1.73424
1.3	-0.158642	0.108591	-0.0420457	1.12876	0.916609	-0.210552	0.632695	-0.0902471	-0.0985033	0.144813	0.353152	0.357999	-0.100392	-0.0533855	0.140505	0.0436992	0.114193	0.381688	0.0513381	-0.097401	-0.100279	-0.115215	-0.0573086	-0.169765	-0.172013	-0.141247	0.658782	1.6508	0.0740434	-0.250682	-0.225809	0.679846	1.74035
1.31	-0.158055	0.102545	-0.0396893	1.13907	0.91529	-0.210878	0.623134	-0.0845722	-0.103037	0.117439	0.349456	0.355638	-0.100409	-0.0615591	0.133566	0.0321052	0.125209	0.395818	0.0717542	-0.0973981	-0.0969213	-0.0983503	-0.0647078	-0.173736	-0.174299	-0.149335	0.650392	1.65146	0.0738585	-0.249244	-0.214845	0.670428	1.746
1.32	-0.15771	0.0969716	-0.0380003	1.14956	0.913918	-0.211219	0.615342	-0.0799541	-0.107032	0.0992942	0.345444	0.347052	-0.100425	-0.0697411	0.127263	0.0210583	0.13605	0.408478	0.0901417	-0.0973953	-0.0928552	-0.0816128	-0.0715248	-0.177807	-0.177219	-0.157275	0.641792	1.65255	0.0729808	-0.246893	-0.204376	0.661028	1.75129
1.33	-0.157592	0.0915162	-0.0371258	1.16022	0.912502	-0.21157	0.609188	-0.0760422	-0.111662	0.0898335	0.340855	0.334667	-0.100442	-0.0781529	0.121273	0.0109341	0.146368	0.419309	0.105803	-0.0973924	-0.0881874	-0.0645729	-0.0776222	-0.181934	-0.180874	-0.165065	0.633075	1.65396	0.071389	-0.243469	-0.194639	0.651735	1.75634
1.34	-0.157673	0.0857328	-0.0371445	1.17106	0.911093	-0.211919	0.604366	-0.0723005	-0.117717	0.0878966	0.335086	0.320681	-0.100458	-0.0868984	0.115147	0.00184062	0.156001	0.428091	0.118416	-0.0973896	-0.083026	-0.0467146	-0.0829027	-0.186064	-0.185334	-0.172757	0.624353	1.65555	0.0690916	-0.238847	-0.185779	0.642598	1.76129
1.35	-0.157934	0.0791195	-0.038074	1.18208	0.909726	-0.212252	0.600376	-0.0680435	-0.125472	0.0917943	0.327299	0.306759	-0.100474	-0.0959803	0.10834	-0.0064123	0.165003	0.434749	0.128057	-0.0973867	-0.0775195	-0.0274563	-0.0873106	-0.190137	-0.190642	-0.180434	0.615749	1.65721	0.0661286	-0.232936	-0.177853	0.633629	1.76634
1.36	-0.158329	0.0711604	-0.0398837	1.19327	0.908439	-0.212556	0.596576	-0.0625204	-0.134729	0.0995168	0.316629	0.293963	-0.100491	-0.105335	0.100276	-0.014228	0.173605	0.439292	0.135071	-0.0973839	-0.0718659	-0.00620612	-0.090828	-0.194081	-0.196831	-0.188179	0.60739	1.65882	0.0625673	-0.225676	-0.170839	0.624819	1.77173
1.37	-0.158773	0.0613924	-0.0425127	1.20462	0.90727	-0.212822	0.592263	-0.0550264	-0.144958	0.109018	0.302457	0.282838	-0.100507	-0.114883	0.0904392	-0.022073	0.182144	0.441728	0.139864	-0.0973811	-0.0663165	0.0175643	-0.0934686	-0.197817	-0.203925	-0.196047	0.599407	1.66025	0.0584929	-0.217038	-0.164667	0.616159	1.77766
1.38	-0.159145	0.0494842	-0.0458885	1.21612	0.906265	-0.213045	0.586778	-0.0450207	-0.155458	0.118504	0.284627	0.273553	-0.100524	-0.124576	0.078478	-0.0303004	0.190973	0.441961	0.142673	-0.0973782	-0.0611603	0.0442354	-0.0952713	-0.201271	-0.211946	-0.204035	0.591918	1.66136	0.0539916	-0.207026	-0.159239	0.607672	1.7842
1.39	-0.159306	0.0352945	-0.0499396	1.22777	0.905469	-0.213229	0.579609	-0.03222	-0.165527	0.126672	0.263577	0.266083	-0.10054	-0.13439	0.0642679	-0.0391156	0.200421	0.439802	0.143551	-0.0973754	-0.0566862	0.0739701	-0.096297	-0.204371	-0.220903	-0.212089	0.585014	1.66203	0.0491353	-0.195682	-0.154468	0.59942	1.79134
1.4	-0.159138	0.0189106	-0.0546039	1.23953	0.904921	-0.213381	0.570478	-0.0166578	-0.174593	0.13284	0.240337	0.260348	-0.100556	-0.144297	0.0479524	-0.04856	0.210774	0.434975	0.142375	-0.0973726	-0.0531265	0.106659	-0.0966297	-0.207054	-0.230777	-0.220118	0.578733	1.66216	0.0439657	-0.183093	-0.150304	0.591508	1.79903
1.41	-0.158588	0.000659637	-0.0598312	1.25141	0.904645	-0.213505	0.559397	0.00130434	-0.182282	0.136963	0.216387	0.256292	-0.100573	-0.154212	0.029944	-0.0585236	0.222275	0.427164	0.138891	-0.0973697	-0.0505971	0.141899	-0.0963825	-0.209262	-0.241507	-0.22801	0.57304	1.66172	0.0384868	-0.1694	-0.146737	0.584088	1.80708
